<svg width="32" height="32" viewBox="0 0 32 32" fill="none" xmlns="http://www.w3.org/2000/svg">
<rect x="0.5" y="0.5" width="31" height="31" stroke="white"/>
<rect x="1" y="6" width="30" height="1" fill="white"/>
<rect x="3" y="3" width="1" height="1" fill="white"/>
<rect x="5" y="3" width="1" height="1" fill="white"/>
<rect x="7" y="3" width="1" height="1" fill="white"/>
<rect x="12.5" y="12.5" width="7" height="13" rx="3.5" stroke="white"/>
<path d="M19.5 17L23 13L20 9M19.5 18.5H23L25.5 21M19.5 20.5L23 22.5L22 28" stroke="white"/>
<path d="M12.5 17L9 13L12 9M12.5 18.5H9L6.5 21M12.5 20.5L9 22.5L10 28" stroke="white"/>
</svg>
