<svg width="32" height="32" viewBox="0 0 32 32" fill="none" xmlns="http://www.w3.org/2000/svg">
<rect x="0.5" y="3.5" width="20" height="28" stroke="white"/>
<rect x="5" y="24" width="11" height="1" fill="white"/>
<rect x="5" y="27" width="11" height="1" fill="white"/>
<path d="M13.7751 11.4822C14.4709 12.178 14.9447 13.0644 15.1366 14.0294C15.3286 14.9945 15.2301 15.9948 14.8535 16.9038C14.477 17.8129 13.8393 18.5898 13.0212 19.1365C12.2031 19.6831 11.2413 19.9749 10.2573 19.9749C9.27338 19.9749 8.31154 19.6831 7.49342 19.1365C6.6753 18.5898 6.03766 17.8129 5.66112 16.9038C5.28458 15.9948 5.18606 14.9945 5.37802 14.0294C5.56997 13.0644 6.04379 12.178 6.73954 11.4822" stroke="white"/>
<rect x="10" y="9" width="1" height="5" fill="white"/>
<path d="M20.5 31.3596V3.39039L31.5 0.640388V28.6096L20.5 31.3596Z" stroke="white"/>
<rect x="24" y="7" width="1" height="21" fill="white"/>
<rect x="27" y="5" width="1" height="21" fill="white"/>
<path d="M3.73363 2.5L11.067 0.5H28.2664L20.933 2.5H3.73363Z" fill="white" stroke="white"/>
</svg>
