<svg width="10" height="20" viewBox="0 0 10 20" fill="none" xmlns="http://www.w3.org/2000/svg">
<path d="M2.35051 3.87333C2.35051 4.37734 2.35051 6.62692 2.35051 6.62692H0.33313V9.99402H2.35051V19.9998H6.49463V9.9943H9.27552C9.27552 9.9943 9.53597 8.3798 9.66221 6.61451C9.30026 6.61451 6.5103 6.61451 6.5103 6.61451C6.5103 6.61451 6.5103 4.65564 6.5103 4.31229C6.5103 3.96819 6.96213 3.50534 7.40871 3.50534C7.85445 3.50534 8.79523 3.50534 9.66658 3.50534C9.66658 3.0469 9.66658 1.46291 9.66658 1.20277e-08C8.50335 1.20277e-08 7.17998 1.20277e-08 6.59665 1.20277e-08C2.24807 -0.000232484 2.35051 3.37021 2.35051 3.87333Z" fill="white"/>
</svg>
