<svg width="48" height="48" viewBox="0 0 48 48" fill="none" xmlns="http://www.w3.org/2000/svg">
<g clip-path="url(#clip0)">
<path d="M47.8929 32.98C47.5599 31.7666 46.5425 30.8636 45.2981 30.6769V12.4372H46.8875C47.3263 12.4372 47.6822 12.0814 47.6822 11.6425V3.69546C47.6822 3.2562 47.3263 2.90076 46.8875 2.90076H11.9205C11.4817 2.90076 11.1258 3.2562 11.1258 3.69546V11.6425C11.1258 12.0814 11.4817 12.4372 11.9205 12.4372H13.5099V28.3313H12.7152C10.7428 28.3266 8.8108 28.892 7.15233 29.9595V25.9471C7.15233 25.5079 6.7965 25.1524 6.35762 25.1524H0.794703C0.355831 25.1524 0 25.5079 0 25.9471V44.2253C0 44.6642 0.355831 45.02 0.794703 45.02H6.35762C6.7965 45.02 7.15233 44.6642 7.15233 44.2253V40.2134C8.81119 41.2801 10.7428 41.8455 12.7152 41.8412H25.7642C26.6683 41.8397 27.5682 41.7209 28.4417 41.4881L45.6477 36.879C47.3407 36.4176 48.3438 34.6761 47.8929 32.98ZM12.7152 4.49016H46.0928V10.8478H12.7152V4.49016ZM15.0994 12.4372H43.7087V30.8135L34.4854 33.2869C34.1055 32.3812 33.3306 31.701 32.3834 31.4414L21.6754 28.5695C21.0724 28.4108 20.4516 28.3305 19.828 28.3313H15.0994V12.4372ZM5.56292 43.4306H1.58941V26.7418H5.56292V43.4306ZM45.2352 35.3435L28.0323 39.9526C27.2923 40.1501 26.5302 40.2506 25.7642 40.2518H12.7152C10.8232 40.2561 8.98115 39.6422 7.47013 38.5033L7.15233 38.265V31.9074L7.47013 31.6688C8.98115 30.5299 10.8232 29.9156 12.7152 29.9207H19.828C20.3134 29.9203 20.7973 29.9831 21.2672 30.1073L31.9717 32.9769C32.6042 33.1511 33.0671 33.6932 33.1393 34.3455C33.1478 34.3781 33.1583 34.4103 33.1711 34.4417C33.1618 34.4758 33.1548 34.5104 33.1501 34.5457C33.1509 34.6749 33.1334 34.8037 33.0977 34.9279C32.9107 35.6206 32.2833 36.1021 31.5658 36.1033C31.4257 36.1044 31.2868 36.0866 31.1517 36.0509L24.3968 34.2395C24.1197 34.1573 23.8197 34.2318 23.6133 34.4343C23.4073 34.6369 23.3269 34.9353 23.4042 35.2139C23.4814 35.4921 23.7037 35.7071 23.9851 35.7742L30.74 37.5864C31.0097 37.6574 31.2879 37.6931 31.5673 37.6927C32.9961 37.6919 34.2483 36.7362 34.6258 35.3579C34.6701 35.1984 34.7 35.0354 34.7159 34.8709L44.404 32.273C44.4731 32.2555 44.548 32.2376 44.6186 32.226C45.4098 32.1239 46.1537 32.6241 46.3582 33.3948C46.3939 33.529 46.4117 33.6676 46.4106 33.8065C46.4117 34.5259 45.9298 35.1561 45.2352 35.3435Z" fill="white"/>
<path d="M25.4304 15.616H33.3775C33.8164 15.616 34.1722 15.2602 34.1722 14.8213C34.1722 14.3821 33.8164 14.0266 33.3775 14.0266H25.4304C24.9916 14.0266 24.6357 14.3821 24.6357 14.8213C24.6357 15.2602 24.9916 15.616 25.4304 15.616Z" fill="white"/>
</g>
<defs>
<clipPath id="clip0">
<rect width="48" height="48" fill="white"/>
</clipPath>
</defs>
</svg>
