<svg width="32" height="32" viewBox="0 0 32 32" fill="none" xmlns="http://www.w3.org/2000/svg">
<path fill-rule="evenodd" clip-rule="evenodd" d="M31 7V8C31.5515 8 32 8.44849 32 9V23C32 23.5515 31.5515 24 31 24H28V24.793L28.207 25H30V26H28C27.8669 26 27.74 25.9475 27.6465 25.8535L27.1465 25.3535C27.0525 25.26 27 25.1326 27 25V24H25V25C25 25.5515 24.5515 26 24 26H16C15.4485 26 15 25.5515 15 25V24H14V25C14 25.5515 13.5515 26 13 26H12C11.4485 26 11 25.5515 11 25V24H9V25.5C9 25.7759 8.77588 26 8.5 26H7V25H8V24H7C6.88647 24 6.77661 23.9614 6.6875 23.8899L5 22.54V26C5 26.0984 4.97046 26.1951 4.91602 26.2776L3.91602 27.7776C3.823 27.9165 3.66699 28 3.5 28H2.5C2.22412 28 2 27.7759 2 27.5V26H1V25H2V24H1C0.448486 24 0 23.5515 0 23V20C0 19.4485 0.448486 19 1 19H2V18H1V17H2V16H1V15H2V14H1C0.448486 14 0 13.5515 0 13V10C0 9.44849 0.448486 9 1 9H2V8H1V7H2V5H0V4H3.5C3.66699 4 3.823 4.0835 3.91602 4.22241L4.91602 5.72241C4.97046 5.80444 5 5.90161 5 6V9.375L6.69995 8.1001C6.78662 8.03491 6.89209 8 7 8V7C7 6.44849 7.44849 6 8 6H30C30.5515 6 31 6.44849 31 7ZM30 7H8V8H30V7ZM1 10V13H2V10H1ZM1 20V23H2V20H1ZM3.23242 27L4 25.8484V6.15161L3.23242 5H3V27H3.23242ZM12 25H13.0005L13 24H12V25ZM23 24V23H31V22V19.5V18.5V17.5V16.5V15.5V14.5V13.5V12.5V11V9H7.1665L5 10.625V21.26L7.17554 23H22V24H16V25H24V24H23Z" fill="white"/>
<circle cx="12" cy="16" r="4.5" stroke="white"/>
<circle cx="24" cy="16" r="4.5" stroke="white"/>
</svg>
