<svg width="32" height="32" viewBox="0 0 32 32" fill="none" xmlns="http://www.w3.org/2000/svg">
<g clip-path="url(#clip0)">
<path d="M25.1399 22.0186C24.8069 21.9292 24.4648 22.1265 24.3755 22.46C24.2861 22.7927 24.4836 23.1355 24.8169 23.2249C25.1499 23.3142 25.4927 23.1162 25.582 22.7835C25.6712 22.45 25.4734 22.1079 25.1399 22.0186Z" fill="white"/>
<path d="M7.18295 23.2249C7.51644 23.1355 7.71371 22.7927 7.62435 22.46C7.535 22.1265 7.19296 21.9292 6.86019 22.0186C6.5267 22.1077 6.3287 22.45 6.41806 22.7835C6.50717 23.1162 6.85018 23.3142 7.18295 23.2249Z" fill="white"/>
<path d="M31.2845 21.2354C31.7552 19.6863 31.9855 18.2297 31.9855 16.7986C31.9855 12.6467 30.2926 8.72388 27.2184 5.75244C24.2223 2.85645 20.2049 1.1875 15.9999 1.1875C7.3856 1.1875 0.0142619 8.15771 0.0142619 16.7986C0.0142619 18.23 0.244486 19.6868 0.715434 21.2363C0.143656 21.6877 -0.134176 22.4539 0.0628458 23.1934L1.67955 29.2244C1.94517 30.219 2.96739 30.8186 3.97373 30.5498L5.88706 30.0369C6.32554 30.6741 7.13169 30.9961 7.91587 30.7866L10.3287 30.1396C11.3263 29.8723 11.9205 28.843 11.6532 27.8457L9.39073 19.4014C9.12315 18.4036 8.09336 17.8093 7.09605 18.0769L4.68394 18.7231C4.42979 18.7913 4.20201 18.9089 4.00791 19.0627C3.8834 18.4814 3.80577 17.9048 3.77574 17.3357C4.46885 17.1177 4.98643 16.5127 5.05992 15.7603C5.57505 10.4795 10.4828 6.18311 15.9999 6.18311C21.5169 6.18311 26.4247 10.4795 26.9398 15.7603C27.013 16.5127 27.5309 17.1177 28.224 17.3357C28.1939 17.9048 28.1163 18.4814 27.9918 19.0627C27.7975 18.9089 27.5699 18.7913 27.3158 18.7231L24.9037 18.0769C23.9056 17.8096 22.8763 18.4036 22.609 19.4014L20.3465 27.8457C20.0792 28.8433 20.6734 29.8723 21.671 30.1396L24.0843 30.7866C24.8653 30.9954 25.6725 30.6765 26.1126 30.0369L28.0265 30.55C29.0362 30.8196 30.0558 30.2144 30.3199 29.2249L31.9369 23.1926C32.1341 22.4529 31.8551 21.6858 31.2845 21.2354ZM5.00694 19.9294L7.41929 19.283C7.75205 19.1936 8.09507 19.3918 8.18443 19.7244L10.4466 28.1687C10.5357 28.5012 10.3377 28.844 10.0052 28.9333L9.40196 29.095L8.2711 24.8726C8.18199 24.5396 7.8397 24.3418 7.50645 24.4309C7.1732 24.5203 6.97544 24.8625 7.0648 25.1958L8.1959 29.4185L7.59288 29.5801C7.2606 29.6689 6.91734 29.4707 6.82798 29.1382C6.82798 29.1379 6.82798 29.1377 6.82798 29.1377L4.56504 20.6938C4.47593 20.3616 4.67417 20.0186 5.00694 19.9294ZM5.46006 28.8582L3.65098 29.3433C3.31822 29.4321 2.97544 29.2361 2.88584 28.9014L1.26939 22.8706C1.1854 22.5552 1.35972 22.2253 1.67149 22.1177C1.68589 22.1125 1.70103 22.1082 1.71128 22.1055L3.49497 21.6272C3.6771 22.0818 3.34458 21.0398 5.46006 28.8582ZM1.27964 17.4229H2.52964C2.58409 18.418 2.76792 19.4304 3.07847 20.4458L1.87828 20.7678C1.53208 19.603 1.33482 18.4995 1.27964 17.4229ZM28.1827 15.6387C27.5924 9.58887 22.1012 4.93408 15.9999 4.93408C9.89512 4.93408 4.40684 9.59155 3.81675 15.6389C3.78746 15.939 3.51866 16.1741 3.2042 16.1741H1.27842C1.62754 8.66504 8.22618 2.43628 15.9999 2.43628C23.7733 2.43628 30.3722 8.66504 30.721 16.1741H28.795C28.4811 16.1741 28.212 15.939 28.1827 15.6387ZM30.7198 17.4229C30.6647 18.4995 30.4674 19.603 30.1214 20.7678L28.921 20.446C29.2315 19.4302 29.4154 18.418 29.4698 17.4229H30.7198ZM25.1717 29.1379C25.1717 29.1379 25.1717 29.1379 25.1715 29.1379C25.0824 29.4705 24.7391 29.6687 24.4073 29.5801L23.8038 29.4182L24.9349 25.1958C25.0243 24.8625 24.8265 24.5203 24.4933 24.4309C24.1603 24.3418 23.8177 24.5396 23.7286 24.8726L22.5975 29.095L21.9945 28.9331C21.662 28.844 21.4637 28.501 21.5528 28.1687L23.8153 19.7244C23.89 19.4458 24.1429 19.2615 24.4188 19.2615C24.472 19.2615 24.5265 19.2686 24.5804 19.283L26.9925 19.9292C27.3253 20.0183 27.5238 20.3613 27.4347 20.6936L25.1717 29.1379ZM30.7303 22.8699L29.1136 28.9019C29.0243 29.2363 28.6808 29.4321 28.3492 29.3435L26.5397 28.8582C28.6559 21.0369 28.3224 22.0823 28.5045 21.6272C30.4046 22.137 30.2938 22.1055 30.3329 22.1194C30.6397 22.2253 30.8143 22.5554 30.7303 22.8699Z" fill="white"/>
</g>
<defs>
<clipPath id="clip0">
<rect width="32" height="32" fill="white"/>
</clipPath>
</defs>
</svg>
