<svg width="32" height="32" viewBox="0 0 32 32" fill="none" xmlns="http://www.w3.org/2000/svg">
<path d="M15.5 0V2.5C15.5 3.05228 15.9477 3.5 16.5 3.5H22.5C23.3284 3.5 24 4.17157 24 5V5C24 5.82843 23.3284 6.5 22.5 6.5H8C7.44772 6.5 7 6.94772 7 7.5V7.5C7 8.05228 7.44772 8.5 8 8.5H14.5C15.0523 8.5 15.5 8.94772 15.5 9.5V12" stroke="white"/>
<rect x="0.5" y="12.5" width="31" height="19" rx="1.5" stroke="white"/>
<rect x="4.5" y="15.5" width="3" height="3" rx="0.5" stroke="white"/>
<rect x="9.5" y="15.5" width="3" height="3" rx="0.5" stroke="white"/>
<rect x="14.5" y="15.5" width="3" height="3" rx="0.5" stroke="white"/>
<rect x="19.5" y="15.5" width="3" height="3" rx="0.5" stroke="white"/>
<rect x="24.5" y="15.5" width="3" height="3" rx="0.5" stroke="white"/>
<rect x="4.5" y="20.5" width="3" height="3" rx="0.5" stroke="white"/>
<rect x="9.5" y="20.5" width="3" height="3" rx="0.5" stroke="white"/>
<rect x="14.5" y="20.5" width="3" height="3" rx="0.5" stroke="white"/>
<rect x="19.5" y="20.5" width="3" height="3" rx="0.5" stroke="white"/>
<rect x="24.5" y="20.5" width="3" height="3" rx="0.5" stroke="white"/>
<rect x="4.5" y="25.5" width="3" height="3" rx="0.5" stroke="white"/>
<rect x="9.5" y="25.5" width="13" height="3" rx="0.5" stroke="white"/>
<rect x="24.5" y="25.5" width="3" height="3" rx="0.5" stroke="white"/>
</svg>
