<svg width="32" height="32" viewBox="0 0 32 32" fill="none" xmlns="http://www.w3.org/2000/svg">
<rect x="0.5" y="0.5" width="31" height="31" rx="1.5" stroke="white"/>
<circle cx="5.5" cy="5.5" r="2" stroke="white"/>
<circle cx="5.5" cy="26.5" r="2" stroke="white"/>
<circle cx="26.5" cy="5.5" r="2" stroke="white"/>
<circle cx="26.5" cy="26.5" r="2" stroke="white"/>
<rect x="4.5" y="10.5" width="2" height="11" rx="1" stroke="white"/>
<rect x="25.5" y="10.5" width="2" height="11" rx="1" stroke="white"/>
<rect x="11.5" y="6.5" width="8" height="8" stroke="white"/>
<rect x="12" y="4" width="1" height="2" fill="white"/>
<rect x="14" y="4" width="1" height="2" fill="white"/>
<rect x="16" y="4" width="1" height="2" fill="white"/>
<rect x="18" y="4" width="1" height="2" fill="white"/>
<rect x="12" y="15" width="1" height="2" fill="white"/>
<rect x="14" y="15" width="1" height="2" fill="white"/>
<rect x="16" y="15" width="1" height="2" fill="white"/>
<rect x="18" y="15" width="1" height="2" fill="white"/>
<rect x="22" y="7" width="1" height="2" transform="rotate(90 22 7)" fill="white"/>
<rect x="22" y="9" width="1" height="2" transform="rotate(90 22 9)" fill="white"/>
<rect x="22" y="11" width="1" height="2" transform="rotate(90 22 11)" fill="white"/>
<rect x="22" y="13" width="1" height="2" transform="rotate(90 22 13)" fill="white"/>
<rect x="11" y="7" width="1" height="2" transform="rotate(90 11 7)" fill="white"/>
<rect x="11" y="9" width="1" height="2" transform="rotate(90 11 9)" fill="white"/>
<rect x="11" y="11" width="1" height="2" transform="rotate(90 11 11)" fill="white"/>
<rect x="11" y="13" width="1" height="2" transform="rotate(90 11 13)" fill="white"/>
<rect x="9.5" y="20.5" width="6" height="5" stroke="white"/>
<rect x="17.5" y="20.5" width="5" height="5" stroke="white"/>
</svg>
