<svg width="45" height="45" viewBox="0 0 45 45" fill="none" xmlns="http://www.w3.org/2000/svg">
<path d="M33.1066 11.8934C35.2044 13.9912 36.633 16.6639 37.2118 19.5736C37.7906 22.4834 37.4935 25.4994 36.3582 28.2403C35.2229 30.9811 33.3003 33.3238 30.8336 34.972C28.3668 36.6203 25.4667 37.5 22.5 37.5C19.5333 37.5 16.6332 36.6203 14.1664 34.972C11.6997 33.3238 9.77712 30.9811 8.64181 28.2403C7.50649 25.4994 7.20944 22.4834 7.78822 19.5736C8.367 16.6639 9.79561 13.9912 11.8934 11.8934" stroke="white"/>
<path d="M26.0355 18.9645C26.7348 19.6637 27.211 20.5546 27.4039 21.5245C27.5969 22.4945 27.4978 23.4998 27.1194 24.4134C26.741 25.327 26.1001 26.1079 25.2779 26.6573C24.4556 27.2068 23.4889 27.5 22.5 27.5C21.5111 27.5 20.5444 27.2068 19.7221 26.6573C18.8999 26.1079 18.259 25.327 17.8806 24.4134C17.5022 23.4998 17.4031 22.4945 17.5961 21.5245C17.789 20.5546 18.2652 19.6637 18.9645 18.9645" stroke="white"/>
<rect x="22" y="10" width="1" height="7" fill="white"/>
</svg>
