<svg width="48" height="48" viewBox="0 0 48 48" fill="none" xmlns="http://www.w3.org/2000/svg">
<path d="M44.6398 21.6903L43.3968 16.7182C43.7366 16.646 43.9916 16.3445 43.9916 15.9833V15.1817C43.9916 13.4411 42.5755 12.0251 40.8351 12.0251H35.1733V10.3715C35.1733 9.51505 34.4766 8.8183 33.6201 8.8183H4.75987C3.90337 8.8183 3.20662 9.51505 3.20662 10.3715V24C3.20662 24.415 3.54309 24.7516 3.95822 24.7516C4.37325 24.7516 4.70981 24.4151 4.70981 24V10.3715C4.70981 10.3439 4.73222 10.3215 4.75987 10.3215H33.62C33.6476 10.3215 33.67 10.3439 33.67 10.3715V24.0002C33.67 24.4152 34.0065 24.7518 34.4216 24.7518C34.8367 24.7518 35.1732 24.4153 35.1732 24.0002V23.1482H44.0391C44.0398 23.1482 44.0404 23.1484 44.041 23.1484C44.0418 23.1484 44.0424 23.1483 44.0431 23.1483C45.1341 23.149 46.0604 23.8651 46.3786 24.8518H44.0416C43.6266 24.8518 43.29 25.1883 43.29 25.6034V27.2067C43.29 28.5052 44.3464 29.5616 45.6449 29.5616H46.4967V32.8685H44.5315C43.886 31.0044 42.114 29.6617 40.0332 29.6617C37.9524 29.6617 36.1804 31.0044 35.5349 32.8685H35.173V27.2066C35.173 26.7916 34.8366 26.455 34.4214 26.455C34.0064 26.455 33.6698 26.7915 33.6698 27.2066V32.8683H18.0766C17.431 31.0042 15.6591 29.6615 13.5783 29.6615C11.4975 29.6615 9.72544 31.0042 9.07997 32.8683H4.75987C4.73222 32.8683 4.70981 32.8459 4.70981 32.8182V31.1647H7.96659C8.38163 31.1647 8.71819 30.8283 8.71819 30.4131C8.71819 29.998 8.38172 29.6615 7.96659 29.6615H0.751594C0.336563 29.6615 0 29.998 0 30.4131C0 30.8283 0.336469 31.1647 0.751594 31.1647H3.20672V32.8182C3.20672 33.6747 3.90347 34.3715 4.75997 34.3715H8.81972C8.81953 34.3881 8.81841 34.4047 8.81841 34.4215C8.81841 37.0461 10.9538 39.1814 13.5783 39.1814C16.2028 39.1814 18.3382 37.0461 18.3382 34.4215C18.3382 34.4046 18.337 34.3881 18.3368 34.3715H35.2747C35.2745 34.3881 35.2733 34.4047 35.2733 34.4215C35.2733 37.0461 37.4087 39.1814 40.0332 39.1814C42.6577 39.1814 44.7931 37.0461 44.7931 34.4215C44.7931 34.4046 44.792 34.3881 44.7918 34.3715H47.2483C47.6633 34.3715 47.9999 34.035 47.9999 33.6199V25.6032C48 23.624 46.5397 21.9795 44.6398 21.6903ZM35.1733 13.5282H40.8351C41.7468 13.5282 42.4885 14.27 42.4885 15.1817V15.2317H35.1733V13.5282ZM35.1733 21.6451V16.7348H41.8516L43.0792 21.6451H35.1733ZM13.5783 37.6785C11.7825 37.6785 10.3215 36.2176 10.3215 34.4217C10.3215 32.6258 11.7825 31.1649 13.5783 31.1649C15.3741 31.1649 16.8351 32.6258 16.8351 34.4217C16.8351 36.2176 15.3741 37.6785 13.5783 37.6785ZM40.0334 37.6785C38.2376 37.6785 36.7766 36.2176 36.7766 34.4217C36.7766 32.6258 38.2376 31.1649 40.0334 31.1649C41.8292 31.1649 43.2902 32.6258 43.2902 34.4217C43.2902 36.2176 41.8292 37.6785 40.0334 37.6785ZM46.4969 28.0584H45.6451C45.1754 28.0584 44.7933 27.6763 44.7933 27.2066V26.3548H46.4968V28.0584H46.4969Z" fill="white"/>
<path d="M13.5786 32.8685C12.7221 32.8685 12.0254 33.5652 12.0254 34.4217C12.0254 35.2782 12.7221 35.975 13.5786 35.975C14.4351 35.975 15.1319 35.2782 15.1319 34.4217C15.1319 33.5652 14.4351 32.8685 13.5786 32.8685Z" fill="white"/>
<path d="M40.0337 32.8685C39.1772 32.8685 38.4805 33.5652 38.4805 34.4217C38.4805 35.2782 39.1772 35.975 40.0337 35.975C40.8902 35.975 41.587 35.2782 41.587 34.4217C41.587 33.5652 40.8902 32.8685 40.0337 32.8685Z" fill="white"/>
<path d="M31.2152 29.6619H19.9918C19.5768 29.6619 19.2402 29.9983 19.2402 30.4135C19.2402 30.8286 19.5767 31.1651 19.9918 31.1651H31.2152C31.6302 31.1651 31.9668 30.8286 31.9668 30.4135C31.9668 29.9983 31.6303 29.6619 31.2152 29.6619Z" fill="white"/>
<path d="M11.9752 26.4551H2.35511C1.94008 26.4551 1.60352 26.7916 1.60352 27.2067C1.60352 27.6219 1.93998 27.9583 2.35511 27.9583H11.9752C12.3902 27.9583 12.7268 27.6219 12.7268 27.2067C12.7268 26.7916 12.3902 26.4551 11.9752 26.4551Z" fill="white"/>
<path d="M26.1343 16.2535C25.8409 15.96 25.3649 15.96 25.0715 16.2535L18.3878 22.9371L14.9109 19.4602C14.6174 19.1666 14.1415 19.1666 13.8481 19.4602C13.5545 19.7537 13.5545 20.2295 13.8481 20.523L17.8565 24.5314C18.0032 24.6782 18.1956 24.7515 18.3878 24.7515C18.5801 24.7515 18.7726 24.6782 18.9192 24.5314L26.1342 17.3164C26.4277 17.0228 26.4277 16.547 26.1343 16.2535Z" fill="white"/>
</svg>
