<svg width="60" height="48" viewBox="0 0 60 48" fill="none" xmlns="http://www.w3.org/2000/svg">
<path d="M0 0H60V40H8L0 48V40V0Z" fill="#E42245"/>
<g clip-path="url(#clip0)">
<path d="M16.1456 8H15.9831L15.9367 8.16169L13.9641 14.4447L13.7089 15.3917L13.5464 14.7449L13.384 14.1675L11.4346 8.13859L11.3882 8H11.2257H8.20886H8V8.20789V18.9028V19.1107H8.20886H10.2046H10.4135V18.9028V12.435C10.4135 12.3195 10.4135 12.1347 10.4135 11.9269L10.7152 13.0125L12.6646 18.9952L12.711 19.1338H12.8734H14.4979H14.6603L14.7068 18.9952L16.6561 13.0356C16.7489 12.7815 16.8418 12.435 16.9578 12.0192C16.9578 12.1578 16.9578 12.3195 16.9578 12.4581V18.949V19.1569H17.1667H19.1624H19.3713V18.949V8.20789V8H19.1624H16.1456Z" fill="white"/>
<path d="M34.4332 19.1338H34.642V18.9259V12.5967C34.642 12.3426 34.6188 12.0192 34.5956 11.6497L38.7728 18.9952L38.8424 19.1107H38.9585H41.604H41.8129V18.9028V8.20789V8H41.604H39.6083H39.3994V8.20789V14.4216C39.3994 14.768 39.4226 15.1376 39.4458 15.5303L35.199 8.1155L35.1294 8H35.0133H32.4374H32.2285V8.20789V18.9028V19.1107H32.4374H34.4332V19.1338Z" fill="white"/>
<path d="M50.2358 16.4543V16.2233V14.3754V14.1675H49.9573H45.1535H44.875V14.3754V16.2233V16.4543H45.1535H49.9573H50.2358Z" fill="white"/>
<path d="M31.2537 18.8335L27.3317 8.13859L27.2853 8H27.1229H24.4773H24.3149L24.2684 8.13859L22.4583 13.0587H24.9879C25.4752 11.6728 25.7305 10.8874 25.7769 10.7026C25.7769 10.6795 25.8001 10.6333 25.8001 10.6102L26.0786 11.4649L27.0533 14.2599H22.0174L20.3465 18.8335L20.2305 19.1338H20.5322H22.7832H22.9457L22.9921 18.9952L23.8971 16.4081H27.6798L28.5849 18.9952L28.6313 19.1338H28.7938H31.0216H31.3233L31.2537 18.8335Z" fill="white"/>
<path d="M16.1456 20.8662H15.9831L15.9367 21.0279L13.9641 27.3109L13.7089 28.2579L13.5464 27.6112L13.384 27.0337L11.4578 21.051L11.4114 20.8893H11.2489H8.23207H8V21.0972V31.7921V32H8.20886H10.2046H10.4135V31.7921V25.3012C10.4135 25.1857 10.4135 25.001 10.4135 24.7931L10.7152 25.8787L12.6646 31.8614L12.711 32H12.8734H14.4979H14.6603L14.7068 31.8614L16.6561 25.9018C16.7489 25.6477 16.8418 25.3012 16.9578 24.8855C16.9578 25.0241 16.9578 25.1857 16.9578 25.3243V31.8152V32.0231H17.1667H19.1624H19.3713V31.8152V21.0741V20.8662H19.1624H16.1456Z" fill="white"/>
<path d="M51.7907 29.8287H45.8033V27.4495H51.3265H51.5354V27.2416V25.5091V25.2781H51.3265H45.8033V23.0375H51.7907H51.9995V22.8065V21.0741V20.8662H51.7907H43.3202H43.1113V21.0741V31.769V32H43.3202H51.7907H51.9995V31.769V30.0366V29.8287H51.7907Z" fill="white"/>
<path d="M40.6753 22.2753C39.6542 21.3282 38.169 20.8662 36.3124 20.8662H32.4137H32.2048V21.0741V23.0144H36.266C37.3103 23.0144 38.1226 23.2916 38.6795 23.846C39.2365 24.4004 39.515 25.2319 39.515 26.3176C39.515 27.4033 39.2365 28.2579 38.7027 28.8816C38.169 29.5053 37.4728 29.8056 36.5677 29.8056H34.8736V24.2387H32.1816V31.769V31.9769H32.3905H36.7766C37.8441 31.9769 38.7956 31.7459 39.6078 31.307C40.4432 30.845 41.093 30.1983 41.534 29.3205C41.9749 28.4658 42.207 27.4726 42.207 26.3407C42.2534 24.6083 41.7196 23.2223 40.6753 22.2753Z" fill="white"/>
<path d="M31.2537 31.6997L27.3317 21.0048L27.2853 20.8662H27.1229H24.4773H24.3149L24.2684 21.0048L22.4583 25.9249H24.9879C25.4752 24.539 25.7305 23.7536 25.7769 23.5688C25.7769 23.5457 25.8001 23.4995 25.8001 23.4764L26.0786 24.3311L27.0533 27.1261H22.0174L20.3465 31.6997L20.2305 32H20.5322H22.7832H22.9457L22.9921 31.8614L23.9203 29.2512H27.703L28.6081 31.8383L28.6545 31.9769H28.817H31.0448H31.3465L31.2537 31.6997Z" fill="white"/>
</g>
<defs>
<clipPath id="clip0">
<rect width="44" height="24" fill="white" transform="translate(8 8)"/>
</clipPath>
</defs>
</svg>
