<svg width="24" height="24" viewBox="0 0 24 24" fill="none" xmlns="http://www.w3.org/2000/svg">
<g clip-path="url(#clip0)">
<path d="M7.20484 15.8022H20.4289C21.9283 15.8022 23.1516 14.5789 23.1516 13.0794V7.51559C23.1516 7.51065 23.1516 7.50079 23.1516 7.49586C23.1516 7.48106 23.1516 7.47119 23.1516 7.4564C23.1516 7.44653 23.1516 7.43667 23.1467 7.4268C23.1467 7.41694 23.1417 7.40214 23.1417 7.39227C23.1417 7.38241 23.1368 7.37254 23.1368 7.36268C23.1319 7.35281 23.1319 7.34295 23.1269 7.32815C23.122 7.31829 23.122 7.30842 23.1171 7.29856C23.1121 7.28869 23.1121 7.27883 23.1072 7.26896C23.1023 7.2591 23.0973 7.24923 23.0924 7.23443C23.0875 7.22457 23.0825 7.2147 23.0776 7.20977C23.0727 7.19991 23.0677 7.19004 23.0628 7.18018C23.0579 7.17031 23.0529 7.16538 23.048 7.15551C23.0431 7.14565 23.0332 7.13578 23.0283 7.12592C23.0234 7.11605 23.0184 7.11112 23.0086 7.10126C23.0036 7.09139 22.9938 7.08646 22.9888 7.07659C22.9839 7.06673 22.974 7.0618 22.9691 7.05193C22.9642 7.04207 22.9543 7.03713 22.9494 7.0322C22.9395 7.02234 22.9346 7.0174 22.9247 7.00754C22.9148 7.00261 22.9099 6.99274 22.9 6.98781C22.8902 6.98288 22.8803 6.97301 22.8704 6.96808C22.8606 6.96315 22.8556 6.95821 22.8458 6.95328C22.8359 6.94835 22.8261 6.94342 22.8162 6.93355C22.8063 6.92862 22.7965 6.92369 22.7866 6.91875C22.7767 6.91382 22.7669 6.90889 22.757 6.90396C22.7471 6.89902 22.7373 6.89409 22.7274 6.88916C22.7175 6.88423 22.7077 6.88423 22.6978 6.87929C22.6879 6.87436 22.6731 6.86943 22.6633 6.86943C22.6534 6.86943 22.6435 6.8645 22.6386 6.8645C22.6238 6.85956 22.614 6.85956 22.5992 6.85956C22.5942 6.85956 22.5893 6.85463 22.5794 6.85463L5.8188 4.54129V2.20329C5.8188 2.17862 5.8188 2.15396 5.81387 2.13423C5.81387 2.1293 5.81387 2.12437 5.80894 2.1145C5.80894 2.0997 5.80401 2.08491 5.80401 2.07011C5.79907 2.05531 5.79907 2.04545 5.79414 2.03065C5.79414 2.02078 5.78921 2.01585 5.78921 2.00599C5.78428 1.99119 5.77934 1.97639 5.77441 1.96159C5.77441 1.95666 5.76948 1.9468 5.76948 1.94186C5.76455 1.92707 5.75961 1.9172 5.74975 1.9024C5.74482 1.89747 5.74482 1.88761 5.73988 1.88267C5.73495 1.87281 5.73002 1.86294 5.72015 1.85308C5.71522 1.84321 5.71029 1.83828 5.70536 1.82842C5.70042 1.81855 5.69549 1.81362 5.69056 1.80375C5.68563 1.79389 5.67576 1.78402 5.67083 1.77416C5.6659 1.76923 5.66096 1.76429 5.65603 1.75936C5.64617 1.7495 5.6363 1.73963 5.62644 1.72977C5.6215 1.72483 5.61657 1.7199 5.61164 1.71497C5.60177 1.7051 5.59191 1.69524 5.57711 1.68537C5.57218 1.68044 5.56231 1.67551 5.55738 1.67058C5.54752 1.66071 5.53765 1.65578 5.52779 1.64591C5.51299 1.63605 5.49819 1.62618 5.48833 1.62125C5.48339 1.61632 5.47846 1.61632 5.47353 1.61139C5.4538 1.60152 5.42914 1.59166 5.40941 1.58179L1.77416 0.0527161C1.43381 -0.0903264 1.04415 0.0675136 0.901105 0.407856C0.758062 0.748198 0.915902 1.13787 1.25624 1.28091L4.4821 2.64228V5.66097V6.13942V9.8092V13.0893V17.2326C4.4821 18.6137 5.51792 19.758 6.85463 19.9307C6.61294 20.3351 6.46989 20.8087 6.46989 21.3118C6.46989 22.7965 7.67836 24 9.1581 24C10.6379 24 11.8463 22.7915 11.8463 21.3118C11.8463 20.8185 11.7131 20.3499 11.4764 19.9553H17.4644C17.2277 20.3549 17.0945 20.8185 17.0945 21.3118C17.0945 22.7965 18.303 24 19.7827 24C21.2625 24 22.4709 22.7915 22.4709 21.3118C22.4709 19.832 21.2625 18.6236 19.7827 18.6236H7.20484C6.43537 18.6236 5.81387 17.9971 5.81387 17.2326V15.4273C6.21834 15.6641 6.69679 15.8022 7.20484 15.8022ZM10.5195 21.3069C10.5195 22.0566 9.90784 22.6633 9.16304 22.6633C8.41823 22.6633 7.8066 22.0517 7.8066 21.3069C7.8066 20.562 8.41823 19.9504 9.16304 19.9504C9.90784 19.9504 10.5195 20.5571 10.5195 21.3069ZM21.1441 21.3069C21.1441 22.0566 20.5324 22.6633 19.7876 22.6633C19.0428 22.6633 18.4312 22.0517 18.4312 21.3069C18.4312 20.562 19.0428 19.9504 19.7876 19.9504C20.5324 19.9504 21.1441 20.5571 21.1441 21.3069ZM20.4289 14.4704H7.20484C6.43537 14.4704 5.81387 13.844 5.81387 13.0794V9.79933V6.12955V5.88293L21.8198 8.08776V13.0745C21.8198 13.8489 21.1934 14.4704 20.4289 14.4704Z" fill="white"/>
</g>
<defs>
<clipPath id="clip0">
<rect width="24" height="24" fill="white"/>
</clipPath>
</defs>
</svg>
