<svg width="32" height="32" viewBox="0 0 32 32" fill="none" xmlns="http://www.w3.org/2000/svg">
<path d="M31.5 16C31.5 18.0355 31.0991 20.051 30.3201 21.9316C29.5412 23.8121 28.3995 25.5208 26.9602 26.9602C25.5208 28.3995 23.8121 29.5412 21.9316 30.3201C20.051 31.0991 18.0355 31.5 16 31.5C13.9645 31.5 11.949 31.0991 10.0684 30.3201C8.18786 29.5412 6.47915 28.3995 5.03984 26.9602C3.60054 25.5208 2.45881 23.8121 1.67987 21.9316C0.900919 20.051 0.5 18.0355 0.5 16C0.5 13.9645 0.90092 11.949 1.67987 10.0684C2.45882 8.18786 3.60054 6.47915 5.03985 5.03984C6.47915 3.60054 8.18786 2.45881 10.0684 1.67987C11.949 0.900919 13.9645 0.5 16 0.5C18.0355 0.5 20.051 0.90092 21.9316 1.67987C23.8121 2.45882 25.5208 3.60054 26.9602 5.03985C28.3995 6.47915 29.5412 8.18786 30.3201 10.0684C31.0991 11.949 31.5 13.9645 31.5 16L31.5 16Z" stroke="white"/>
<circle cx="16" cy="16" r="1.5" fill="white" stroke="white"/>
<mask id="path-3-inside-1" fill="white">
<path fill-rule="evenodd" clip-rule="evenodd" d="M16 16V9.5V3C16.8536 3 17.6988 3.16813 18.4874 3.49478C19.2761 3.82144 19.9926 4.30022 20.5962 4.90381C21.1998 5.50739 21.6786 6.22394 22.0052 7.01256C22.3319 7.80117 22.5 8.64641 22.5 9.5C22.5 10.3536 22.3319 11.1988 22.0052 11.9874C21.6786 12.7761 21.1998 13.4926 20.5962 14.0962C19.9926 14.6998 19.2761 15.1786 18.4874 15.5052C17.7004 15.8312 16.8569 15.9993 16.005 16L22.5 16H29C29 16.8536 28.8319 17.6988 28.5052 18.4874C28.1786 19.2761 27.6998 19.9926 27.0962 20.5962C26.4926 21.1998 25.7761 21.6786 24.9874 22.0052C24.1988 22.3319 23.3536 22.5 22.5 22.5C21.6464 22.5 20.8012 22.3319 20.0126 22.0052C19.2239 21.6786 18.5074 21.1998 17.9038 20.5962C17.3002 19.9926 16.8214 19.2761 16.4948 18.4874C16.1686 17.6999 16.0005 16.8559 16 16.0035L16 22.5V29C15.1464 29 14.3012 28.8319 13.5126 28.5052C12.7239 28.1786 12.0074 27.6998 11.4038 27.0962C10.8002 26.4926 10.3214 25.7761 9.99478 24.9874C9.66813 24.1988 9.5 23.3536 9.5 22.5C9.5 21.6464 9.66813 20.8012 9.99478 20.0126C10.3214 19.2239 10.8002 18.5074 11.4038 17.9038C12.0074 17.3002 12.7239 16.8214 13.5126 16.4948C14.3001 16.1686 15.1441 16.0005 15.9965 16L9.5 16L3 16C3 15.1464 3.16813 14.3012 3.49478 13.5126C3.82144 12.7239 4.30022 12.0074 4.90381 11.4038C5.50739 10.8002 6.22394 10.3214 7.01256 9.99478C7.80117 9.66813 8.64641 9.5 9.5 9.5C10.3536 9.5 11.1988 9.66813 11.9874 9.99478C12.7761 10.3214 13.4926 10.8002 14.0962 11.4038C14.6998 12.0074 15.1786 12.7239 15.5052 13.5126C15.8319 14.3012 16 15.1464 16 16Z"/>
</mask>
<path d="M16 3V2H15V3H16ZM20.5962 4.90381L19.8891 5.61091L20.5962 4.90381ZM22.0052 7.01256L22.9291 6.62987V6.62987L22.0052 7.01256ZM20.5962 14.0962L19.8891 13.3891L20.5962 14.0962ZM18.4874 15.5052L18.1048 14.5813L18.4874 15.5052ZM16.005 16L16.0042 15L16.005 17V16ZM22.5 16V17V16ZM29 16H30V15H29V16ZM28.5052 18.4874L27.5813 18.1048V18.1048L28.5052 18.4874ZM27.0962 20.5962L27.8033 21.3033H27.8033L27.0962 20.5962ZM20.0126 22.0052L19.6299 22.9291H19.6299L20.0126 22.0052ZM17.9038 20.5962L18.6109 19.8891L17.9038 20.5962ZM16.4948 18.4874L15.5709 18.8701V18.8701L16.4948 18.4874ZM16 16.0035L17 16.003L15 16.0035H16ZM16 22.5H15H16ZM16 29V30H17V29H16ZM13.5126 28.5052L13.1299 29.4291H13.1299L13.5126 28.5052ZM11.4038 27.0962L10.6967 27.8033L10.6967 27.8033L11.4038 27.0962ZM9.99478 24.9874L10.9187 24.6048V24.6048L9.99478 24.9874ZM9.99478 20.0126L9.0709 19.6299V19.6299L9.99478 20.0126ZM13.5126 16.4948L13.1299 15.5709H13.1299L13.5126 16.4948ZM15.9965 16L15.997 17L15.9965 15V16ZM9.5 16V15V16ZM3 16H2V17H3L3 16ZM3.49478 13.5126L2.5709 13.1299H2.5709L3.49478 13.5126ZM4.90381 11.4038L5.61091 12.1109H5.61091L4.90381 11.4038ZM7.01256 9.99478L6.62987 9.0709H6.62987L7.01256 9.99478ZM9.5 9.5L9.5 8.5H9.5V9.5ZM11.9874 9.99478L12.3701 9.0709L11.9874 9.99478ZM14.0962 11.4038L13.3891 12.1109V12.1109L14.0962 11.4038ZM15.5052 13.5126L16.4291 13.1299L15.5052 13.5126ZM15 9.5V16H17V9.5H15ZM15 3V9.5H17V3H15ZM18.8701 2.5709C17.9602 2.19399 16.9849 2 16 2V4C16.7223 4 17.4375 4.14226 18.1048 4.41866L18.8701 2.5709ZM21.3033 4.1967C20.6069 3.50026 19.7801 2.94781 18.8701 2.5709L18.1048 4.41866C18.772 4.69506 19.3784 5.10019 19.8891 5.61091L21.3033 4.1967ZM22.9291 6.62987C22.5522 5.71993 21.9997 4.89314 21.3033 4.1967L19.8891 5.61091C20.3998 6.12163 20.8049 6.72795 21.0813 7.39524L22.9291 6.62987ZM23.5 9.5C23.5 8.51509 23.306 7.53982 22.9291 6.62987L21.0813 7.39524C21.3577 8.06253 21.5 8.77773 21.5 9.5H23.5ZM22.9291 12.3701C23.306 11.4602 23.5 10.4849 23.5 9.5H21.5C21.5 10.2223 21.3577 10.9375 21.0813 11.6048L22.9291 12.3701ZM21.3033 14.8033C21.9997 14.1069 22.5522 13.2801 22.9291 12.3701L21.0813 11.6048C20.8049 12.272 20.3998 12.8784 19.8891 13.3891L21.3033 14.8033ZM18.8701 16.4291C19.7801 16.0522 20.6069 15.4997 21.3033 14.8033L19.8891 13.3891C19.3784 13.8998 18.772 14.3049 18.1048 14.5813L18.8701 16.4291ZM16.0057 17C16.9887 16.9992 17.962 16.8053 18.8701 16.4291L18.1048 14.5813C17.4388 14.8572 16.7251 14.9994 16.0042 15L16.0057 17ZM22.5 15L16.005 15V17L22.5 17V15ZM29 15H22.5V17H29V15ZM29.4291 18.8701C29.806 17.9602 30 16.9849 30 16H28C28 16.7223 27.8577 17.4375 27.5813 18.1048L29.4291 18.8701ZM27.8033 21.3033C28.4997 20.6069 29.0522 19.7801 29.4291 18.8701L27.5813 18.1048C27.3049 18.772 26.8998 19.3784 26.3891 19.8891L27.8033 21.3033ZM25.3701 22.9291C26.2801 22.5522 27.1069 21.9997 27.8033 21.3033L26.3891 19.8891C25.8784 20.3998 25.272 20.8049 24.6048 21.0813L25.3701 22.9291ZM22.5 23.5C23.4849 23.5 24.4602 23.306 25.3701 22.9291L24.6048 21.0813C23.9375 21.3577 23.2223 21.5 22.5 21.5V23.5ZM19.6299 22.9291C20.5398 23.306 21.5151 23.5 22.5 23.5V21.5C21.7777 21.5 21.0625 21.3577 20.3952 21.0813L19.6299 22.9291ZM17.1967 21.3033C17.8931 21.9997 18.7199 22.5522 19.6299 22.9291L20.3952 21.0813C19.728 20.8049 19.1216 20.3998 18.6109 19.8891L17.1967 21.3033ZM15.5709 18.8701C15.9478 19.7801 16.5003 20.6069 17.1967 21.3033L18.6109 19.8891C18.1002 19.3784 17.6951 18.772 17.4187 18.1048L15.5709 18.8701ZM15 16.0041C15.0005 16.9876 15.1945 17.9614 15.5709 18.8701L17.4187 18.1048C17.1426 17.4384 17.0004 16.7242 17 16.003L15 16.0041ZM17 22.5L17 16.0035H15L15 22.5H17ZM17 29V22.5H15V29H17ZM13.1299 29.4291C14.0398 29.806 15.0151 30 16 30V28C15.2777 28 14.5625 27.8577 13.8952 27.5813L13.1299 29.4291ZM10.6967 27.8033C11.3931 28.4997 12.2199 29.0522 13.1299 29.4291L13.8952 27.5813C13.228 27.3049 12.6216 26.8998 12.1109 26.3891L10.6967 27.8033ZM9.0709 25.3701C9.44781 26.2801 10.0003 27.1069 10.6967 27.8033L12.1109 26.3891C11.6002 25.8784 11.1951 25.272 10.9187 24.6048L9.0709 25.3701ZM8.5 22.5C8.5 23.4849 8.69399 24.4602 9.0709 25.3701L10.9187 24.6048C10.6423 23.9375 10.5 23.2223 10.5 22.5H8.5ZM9.0709 19.6299C8.69399 20.5398 8.5 21.5151 8.5 22.5H10.5C10.5 21.7777 10.6423 21.0625 10.9187 20.3952L9.0709 19.6299ZM10.6967 17.1967C10.0003 17.8931 9.44781 18.7199 9.0709 19.6299L10.9187 20.3952C11.1951 19.728 11.6002 19.1216 12.1109 18.6109L10.6967 17.1967ZM13.1299 15.5709C12.2199 15.9478 11.3931 16.5003 10.6967 17.1967L12.1109 18.6109C12.6216 18.1002 13.228 17.6951 13.8952 17.4187L13.1299 15.5709ZM15.9959 15C15.0124 15.0005 14.0386 15.1945 13.1299 15.5709L13.8952 17.4187C14.5616 17.1426 15.2758 17.0004 15.997 17L15.9959 15ZM9.5 17L15.9965 17V15L9.5 15V17ZM3 17L9.5 17V15L3 15L3 17ZM2.5709 13.1299C2.19399 14.0398 2 15.0151 2 16H4C4 15.2777 4.14226 14.5625 4.41866 13.8952L2.5709 13.1299ZM4.1967 10.6967C3.50026 11.3931 2.94781 12.2199 2.5709 13.1299L4.41866 13.8952C4.69506 13.228 5.10019 12.6216 5.61091 12.1109L4.1967 10.6967ZM6.62987 9.0709C5.71993 9.44781 4.89314 10.0003 4.1967 10.6967L5.61091 12.1109C6.12163 11.6002 6.72795 11.1951 7.39524 10.9187L6.62987 9.0709ZM9.5 8.5C8.51509 8.5 7.53982 8.69399 6.62987 9.0709L7.39524 10.9187C8.06253 10.6423 8.77773 10.5 9.5 10.5V8.5ZM12.3701 9.0709C11.4602 8.69399 10.4849 8.5 9.5 8.5L9.5 10.5C10.2223 10.5 10.9375 10.6423 11.6048 10.9187L12.3701 9.0709ZM14.8033 10.6967C14.1069 10.0003 13.2801 9.44782 12.3701 9.0709L11.6048 10.9187C12.272 11.1951 12.8784 11.6002 13.3891 12.1109L14.8033 10.6967ZM16.4291 13.1299C16.0522 12.2199 15.4997 11.3931 14.8033 10.6967L13.3891 12.1109C13.8998 12.6216 14.3049 13.228 14.5813 13.8952L16.4291 13.1299ZM17 16C17 15.0151 16.806 14.0398 16.4291 13.1299L14.5813 13.8952C14.8577 14.5625 15 15.2777 15 16H17Z" fill="white" mask="url(#path-3-inside-1)"/>
</svg>
