<svg width="32" height="32" viewBox="0 0 32 32" fill="none" xmlns="http://www.w3.org/2000/svg">
<rect x="0.5" y="4.5" width="31" height="23" stroke="white"/>
<path d="M21.4931 15.6588C21.578 17.7707 20.8729 19.8385 19.5156 21.4587C18.1582 23.0789 16.2459 24.1352 14.1518 24.4216C12.0576 24.708 9.9319 24.2039 8.18935 23.0077C6.44681 21.8115 5.21245 20.0089 4.72712 17.9518C4.24179 15.8946 4.5403 13.7304 5.56442 11.8815C6.58854 10.0325 8.26479 8.63147 10.2661 7.95166C12.2674 7.27184 14.4502 7.36205 16.3886 8.20468C18.327 9.0473 19.882 10.5819 20.75 12.509" stroke="white"/>
<rect x="2" y="6" width="1" height="1" fill="white"/>
<rect x="2" y="25" width="1" height="1" fill="white"/>
<rect x="23" y="6" width="1" height="1" fill="white"/>
<rect x="23" y="25" width="1" height="1" fill="white"/>
<circle cx="25.7469" cy="12.9611" r="2" transform="rotate(-11.871 25.7469 12.9611)" stroke="white"/>
<path d="M25.3357 11.0038L13.6173 16.0217L26.1585 14.9183" stroke="white"/>
</svg>
