<svg width="57" height="31" viewBox="0 0 57 31" fill="none" xmlns="http://www.w3.org/2000/svg">
<g clip-path="url(#clip0)">
<path d="M10.5522 0H10.3418L10.2816 0.208855L7.72627 8.32435L7.39557 9.54764L7.18513 8.71222L6.97468 7.96631L4.44937 0.179018L4.38924 0H4.1788H0.27057H0V0.268527V14.0828V14.3513H0.27057H2.85601H3.12658V14.0828V5.72859C3.12658 5.5794 3.12658 5.34071 3.12658 5.07218L3.51741 6.47449L6.04272 14.2021L6.10285 14.3811H6.31329H8.41772H8.62817L8.68829 14.2021L11.2136 6.50433C11.3339 6.17613 11.4541 5.72858 11.6044 5.19153C11.6044 5.37055 11.6044 5.5794 11.6044 5.75842V14.1424V14.411H11.875H14.4604H14.731V14.1424V0.268527V0H14.4604H10.5522Z" fill="#000"/>
<path d="M34.2422 14.3811H34.5128V14.1126V5.93744C34.5128 5.60924 34.4828 5.19153 34.4527 4.71415L39.8641 14.2021L39.9543 14.3513H40.1046H43.5318H43.8024V14.0828V0.268527V0H43.5318H40.9464H40.6758V0.268527V8.29451C40.6758 8.74206 40.7059 9.21944 40.7359 9.72666L35.2343 0.149182L35.1441 0H34.9938H31.6568H31.3862V0.268527V14.0828V14.3513H31.6568H34.2422V14.3811Z" fill="#000"/>
<path d="M54.7151 10.9201V10.6218V8.23484V7.96632H54.3544H48.1313H47.7705V8.23484V10.6218V10.9201H48.1313H54.3544H54.7151Z" fill="#000"/>
<path d="M30.1233 13.9933L25.0426 0.179018L24.9825 0H24.7721H21.3448H21.1344L21.0743 0.179018L18.7293 6.53417H22.0062C22.6376 4.74398 22.9683 3.72955 23.0284 3.49086C23.0284 3.46102 23.0584 3.40135 23.0584 3.37151L23.4192 4.47546L24.6819 8.08566H18.1581L15.9936 13.9933L15.8433 14.3811H16.2341H19.1502H19.3607L19.4208 14.2021L20.5933 10.8604H25.4936L26.666 14.2021L26.7262 14.3811H26.9366H29.8227H30.2135L30.1233 13.9933Z" fill="#000"/>
<path d="M10.5522 16.6189H10.3418L10.2816 16.8277L7.72627 24.9432L7.39557 26.1665L7.18513 25.3311L6.97468 24.5852L4.47943 16.8576L4.4193 16.6487H4.20886H0.300633H0V16.9172V30.7315V31H0.27057H2.85601H3.12658V30.7315V22.3474C3.12658 22.1983 3.12658 21.9596 3.12658 21.691L3.51741 23.0934L6.04272 30.821L6.10285 31H6.31329H8.41772H8.62817L8.68829 30.821L11.2136 23.1232C11.3339 22.795 11.4541 22.3474 11.6044 21.8104C11.6044 21.9894 11.6044 22.1983 11.6044 22.3773V30.7613V31.0298H11.875H14.4604H14.731V30.7613V16.8874V16.6189H14.4604H10.5522Z" fill="#000"/>
<path d="M56.7295 28.1954H48.9732V25.1222H56.1282H56.3988V24.8537V22.616V22.3176H56.1282H48.9732V19.4235H56.7295H57.0001V19.1251V16.8874V16.6189H56.7295H45.7564H45.4858V16.8874V30.7016V31H45.7564H56.7295H57.0001V30.7016V28.4639V28.1954H56.7295Z" fill="#000"/>
<path d="M42.3293 18.4389C41.0065 17.2156 39.0825 16.6189 36.6774 16.6189H31.6268H31.3562V16.8874V19.3936H36.6173C37.9702 19.3936 39.0224 19.7517 39.7439 20.4678C40.4654 21.1838 40.8262 22.2579 40.8262 23.6603C40.8262 25.0626 40.4654 26.1665 39.774 26.9721C39.0825 27.7777 38.1806 28.1655 37.0081 28.1655H34.8135V20.975H31.3262V30.7016V30.9702H31.5967H37.2787C38.6616 30.9702 39.8942 30.6718 40.9464 30.1049C42.0287 29.5082 42.8705 28.6728 43.4417 27.539C44.0129 26.435 44.3135 25.1521 44.3135 23.6901C44.3736 21.4524 43.6822 19.6622 42.3293 18.4389Z" fill="#000"/>
<path d="M30.1233 30.6121L25.0426 16.7979L24.9825 16.6189H24.7721H21.3448H21.1344L21.0743 16.7979L18.7293 23.153H22.0062C22.6376 21.3628 22.9683 20.3484 23.0284 20.1097C23.0284 20.0799 23.0585 20.0202 23.0585 19.9904L23.4192 21.0943L24.6819 24.7045H18.1581L15.9936 30.6121L15.8433 31H16.2341H19.1502H19.3607L19.4208 30.821L20.6233 27.4495H25.5236L26.6961 30.7911L26.7562 30.9702H26.9667H29.8528H30.2436L30.1233 30.6121Z" fill="#000"/>
</g>
<defs>
<clipPath id="clip0">
<rect width="57" height="31" fill="#000"/>
</clipPath>
</defs>
</svg>
