<svg width="67" height="22" viewBox="0 0 67 22" fill="none" xmlns="http://www.w3.org/2000/svg">
<path d="M7.20703 3.14062H6.66211L6.5625 1.8457C6.33594 1.57617 6.04102 1.35938 5.67773 1.19531C5.31445 1.02734 4.89453 0.943359 4.41797 0.943359C3.46484 0.943359 2.70703 1.29102 2.14453 1.98633C1.58203 2.67773 1.30078 3.57227 1.30078 4.66992V4.79297C1.30078 5.89062 1.57812 6.78906 2.13281 7.48828C2.69141 8.18359 3.42383 8.53125 4.33008 8.53125C4.81055 8.53125 5.24609 8.44727 5.63672 8.2793C6.03125 8.11133 6.33984 7.89453 6.5625 7.62891L6.66211 6.33398H7.20703V7.83398C6.94141 8.20117 6.55273 8.50781 6.04102 8.75391C5.5332 9 4.96289 9.12305 4.33008 9.12305C3.23633 9.12305 2.3418 8.71875 1.64648 7.91016C0.951172 7.09766 0.603516 6.05859 0.603516 4.79297V4.68164C0.603516 3.41211 0.949219 2.37305 1.64062 1.56445C2.33594 0.751953 3.24414 0.345703 4.36523 0.345703C4.99805 0.345703 5.5625 0.470703 6.05859 0.720703C6.55859 0.966797 6.94141 1.27344 7.20703 1.64062V3.14062ZM10.8691 0.46875V0.990234L9.91406 1.06641V6.25195C9.91406 6.97852 10.1289 7.54102 10.5586 7.93945C10.9883 8.33398 11.5488 8.53125 12.2402 8.53125C12.9434 8.53125 13.5156 8.33398 13.957 7.93945C14.3984 7.54492 14.6191 6.98242 14.6191 6.25195V1.06641L13.6641 0.990234V0.46875H16.2715V0.990234L15.3164 1.06641V6.25195C15.3164 7.18164 15.0312 7.89258 14.4609 8.38477C13.8945 8.87695 13.1543 9.12305 12.2402 9.12305C11.3418 9.12305 10.6133 8.87695 10.0547 8.38477C9.49609 7.88867 9.2168 7.17773 9.2168 6.25195V1.06641L8.26172 0.990234V0.46875H9.2168H9.91406H10.8691ZM23.0684 3H22.4941L22.3945 1.79297C22.1836 1.52734 21.8965 1.32031 21.5332 1.17188C21.1699 1.01953 20.7441 0.943359 20.2559 0.943359C19.5527 0.943359 19.0039 1.0957 18.6094 1.40039C18.2188 1.70508 18.0234 2.08398 18.0234 2.53711C18.0234 2.9668 18.1992 3.32617 18.5508 3.61523C18.9062 3.90039 19.5195 4.15234 20.3906 4.37109C21.3086 4.60547 22.0059 4.92188 22.4824 5.32031C22.9629 5.71875 23.2031 6.24414 23.2031 6.89648C23.2031 7.57617 22.9258 8.11719 22.3711 8.51953C21.8164 8.92188 21.1074 9.12305 20.2441 9.12305C19.6348 9.12305 19.0684 9.01562 18.5449 8.80078C18.0254 8.58594 17.5996 8.2793 17.2676 7.88086V6.38672H17.8418L17.9414 7.63477C18.1992 7.92773 18.5293 8.15039 18.9316 8.30273C19.334 8.45508 19.7715 8.53125 20.2441 8.53125C20.916 8.53125 21.459 8.38281 21.873 8.08594C22.291 7.78906 22.5 7.39648 22.5 6.9082C22.5 6.44336 22.3262 6.06445 21.9785 5.77148C21.6309 5.47461 21.0254 5.21289 20.1621 4.98633C19.2285 4.75195 18.5215 4.44727 18.041 4.07227C17.5605 3.69727 17.3203 3.19141 17.3203 2.55469C17.3203 1.90234 17.5938 1.37109 18.1406 0.960938C18.6875 0.550781 19.3926 0.345703 20.2559 0.345703C20.877 0.345703 21.4297 0.453125 21.9141 0.667969C22.4023 0.882813 22.7871 1.17383 23.0684 1.54102V3ZM30.9141 0.46875V2.26758H30.293L30.2402 1.06641H27.873V8.4082L28.8281 8.48438V9H26.2148V8.48438L27.1699 8.4082V1.06641H24.8027L24.7559 2.26758H24.1289V0.46875H30.9141ZM39.0645 4.79297C39.0645 6.07422 38.7227 7.11719 38.0391 7.92188C37.3555 8.72266 36.4668 9.12305 35.373 9.12305C34.2949 9.12305 33.418 8.7207 32.7422 7.91602C32.0703 7.11133 31.7344 6.07031 31.7344 4.79297V4.68164C31.7344 3.4043 32.0703 2.36328 32.7422 1.55859C33.4141 0.75 34.2891 0.345703 35.3672 0.345703C36.4609 0.345703 37.3496 0.75 38.0332 1.55859C38.7207 2.36328 39.0645 3.4043 39.0645 4.68164V4.79297ZM38.3613 4.66992C38.3613 3.56445 38.0918 2.66992 37.5527 1.98633C37.0137 1.30273 36.2852 0.960938 35.3672 0.960938C34.4648 0.960938 33.75 1.30273 33.2227 1.98633C32.6992 2.66992 32.4375 3.56445 32.4375 4.66992V4.79297C32.4375 5.90625 32.7012 6.80469 33.2285 7.48828C33.7559 8.17188 34.4707 8.51367 35.373 8.51367C36.2988 8.51367 37.0273 8.17383 37.5586 7.49414C38.0938 6.81055 38.3613 5.91016 38.3613 4.79297V4.66992ZM48.6094 1.5L48.5742 1.48828L45.4043 9H44.918L41.7539 1.52344L41.7188 1.5293L41.7832 5.23242V8.4082L42.7383 8.48438V9H40.1309V8.48438L41.0859 8.4082V1.06641L40.1309 0.990234V0.46875H41.0859H42.0059L45.1406 7.98047H45.1758L48.3223 0.46875H50.2031V0.990234L49.248 1.06641V8.4082L50.2031 8.48438V9H47.5957V8.48438L48.5508 8.4082V5.23242L48.6094 1.5ZM6.43945 15H5.86523L5.76562 13.793C5.55469 13.5273 5.26758 13.3203 4.9043 13.1719C4.54102 13.0195 4.11523 12.9434 3.62695 12.9434C2.92383 12.9434 2.375 13.0957 1.98047 13.4004C1.58984 13.7051 1.39453 14.084 1.39453 14.5371C1.39453 14.9668 1.57031 15.3262 1.92188 15.6152C2.27734 15.9004 2.89062 16.1523 3.76172 16.3711C4.67969 16.6055 5.37695 16.9219 5.85352 17.3203C6.33398 17.7188 6.57422 18.2441 6.57422 18.8965C6.57422 19.5762 6.29688 20.1172 5.74219 20.5195C5.1875 20.9219 4.47852 21.123 3.61523 21.123C3.00586 21.123 2.43945 21.0156 1.91602 20.8008C1.39648 20.5859 0.970703 20.2793 0.638672 19.8809V18.3867H1.21289L1.3125 19.6348C1.57031 19.9277 1.90039 20.1504 2.30273 20.3027C2.70508 20.4551 3.14258 20.5312 3.61523 20.5312C4.28711 20.5312 4.83008 20.3828 5.24414 20.0859C5.66211 19.7891 5.87109 19.3965 5.87109 18.9082C5.87109 18.4434 5.69727 18.0645 5.34961 17.7715C5.00195 17.4746 4.39648 17.2129 3.5332 16.9863C2.59961 16.752 1.89258 16.4473 1.41211 16.0723C0.931641 15.6973 0.691406 15.1914 0.691406 14.5547C0.691406 13.9023 0.964844 13.3711 1.51172 12.9609C2.05859 12.5508 2.76367 12.3457 3.62695 12.3457C4.24805 12.3457 4.80078 12.4531 5.28516 12.668C5.77344 12.8828 6.1582 13.1738 6.43945 13.541V15ZM15.0996 16.793C15.0996 18.0742 14.7578 19.1172 14.0742 19.9219C13.3906 20.7227 12.502 21.123 11.4082 21.123C10.3301 21.123 9.45312 20.7207 8.77734 19.916C8.10547 19.1113 7.76953 18.0703 7.76953 16.793V16.6816C7.76953 15.4043 8.10547 14.3633 8.77734 13.5586C9.44922 12.75 10.3242 12.3457 11.4023 12.3457C12.4961 12.3457 13.3848 12.75 14.0684 13.5586C14.7559 14.3633 15.0996 15.4043 15.0996 16.6816V16.793ZM14.3965 16.6699C14.3965 15.5645 14.127 14.6699 13.5879 13.9863C13.0488 13.3027 12.3203 12.9609 11.4023 12.9609C10.5 12.9609 9.78516 13.3027 9.25781 13.9863C8.73438 14.6699 8.47266 15.5645 8.47266 16.6699V16.793C8.47266 17.9062 8.73633 18.8047 9.26367 19.4883C9.79102 20.1719 10.5059 20.5137 11.4082 20.5137C12.334 20.5137 13.0625 20.1738 13.5938 19.4941C14.1289 18.8105 14.3965 17.9102 14.3965 16.793V16.6699ZM16.166 21V20.4844L17.1211 20.4082V13.0664L16.166 12.9902V12.4688H17.1211H17.8242H18.7793V12.9902L17.8242 13.0664V20.4082H21.3691L21.4219 19.207H22.043V21H16.166ZM25.2949 12.4688V12.9902L24.3398 13.0664V18.252C24.3398 18.9785 24.5547 19.541 24.9844 19.9395C25.4141 20.334 25.9746 20.5312 26.666 20.5312C27.3691 20.5312 27.9414 20.334 28.3828 19.9395C28.8242 19.5449 29.0449 18.9824 29.0449 18.252V13.0664L28.0898 12.9902V12.4688H30.6973V12.9902L29.7422 13.0664V18.252C29.7422 19.1816 29.457 19.8926 28.8867 20.3848C28.3203 20.877 27.5801 21.123 26.666 21.123C25.7676 21.123 25.0391 20.877 24.4805 20.3848C23.9219 19.8887 23.6426 19.1777 23.6426 18.252V13.0664L22.6875 12.9902V12.4688H23.6426H24.3398H25.2949ZM38.1914 12.4688V14.2676H37.5703L37.5176 13.0664H35.1504V20.4082L36.1055 20.4844V21H33.4922V20.4844L34.4473 20.4082V13.0664H32.0801L32.0332 14.2676H31.4062V12.4688H38.1914ZM39.0879 12.9902V12.4688H41.7012V12.9902L40.7461 13.0664V20.4082L41.7012 20.4844V21H39.0879V20.4844L40.043 20.4082V13.0664L39.0879 12.9902ZM50.1855 16.793C50.1855 18.0742 49.8438 19.1172 49.1602 19.9219C48.4766 20.7227 47.5879 21.123 46.4941 21.123C45.416 21.123 44.5391 20.7207 43.8633 19.916C43.1914 19.1113 42.8555 18.0703 42.8555 16.793V16.6816C42.8555 15.4043 43.1914 14.3633 43.8633 13.5586C44.5352 12.75 45.4102 12.3457 46.4883 12.3457C47.582 12.3457 48.4707 12.75 49.1543 13.5586C49.8418 14.3633 50.1855 15.4043 50.1855 16.6816V16.793ZM49.4824 16.6699C49.4824 15.5645 49.2129 14.6699 48.6738 13.9863C48.1348 13.3027 47.4062 12.9609 46.4883 12.9609C45.5859 12.9609 44.8711 13.3027 44.3438 13.9863C43.8203 14.6699 43.5586 15.5645 43.5586 16.6699V16.793C43.5586 17.9062 43.8223 18.8047 44.3496 19.4883C44.877 20.1719 45.5918 20.5137 46.4941 20.5137C47.4199 20.5137 48.1484 20.1738 48.6797 19.4941C49.2148 18.8105 49.4824 17.9102 49.4824 16.793V16.6699ZM59.4434 12.4688V12.9902L58.4883 13.0664V21H57.791L52.9453 13.6641L52.9102 13.6699V20.4082L53.8652 20.4844V21H51.252V20.4844L52.207 20.4082V13.0664L51.252 12.9902V12.4688H52.207H52.9102L57.7559 19.793L57.791 19.7871V13.0664L56.8359 12.9902V12.4688H58.4883H59.4434ZM66.2754 15H65.7012L65.6016 13.793C65.3906 13.5273 65.1035 13.3203 64.7402 13.1719C64.377 13.0195 63.9512 12.9434 63.4629 12.9434C62.7598 12.9434 62.2109 13.0957 61.8164 13.4004C61.4258 13.7051 61.2305 14.084 61.2305 14.5371C61.2305 14.9668 61.4062 15.3262 61.7578 15.6152C62.1133 15.9004 62.7266 16.1523 63.5977 16.3711C64.5156 16.6055 65.2129 16.9219 65.6895 17.3203C66.1699 17.7188 66.4102 18.2441 66.4102 18.8965C66.4102 19.5762 66.1328 20.1172 65.5781 20.5195C65.0234 20.9219 64.3145 21.123 63.4512 21.123C62.8418 21.123 62.2754 21.0156 61.752 20.8008C61.2324 20.5859 60.8066 20.2793 60.4746 19.8809V18.3867H61.0488L61.1484 19.6348C61.4062 19.9277 61.7363 20.1504 62.1387 20.3027C62.541 20.4551 62.9785 20.5312 63.4512 20.5312C64.123 20.5312 64.666 20.3828 65.0801 20.0859C65.498 19.7891 65.707 19.3965 65.707 18.9082C65.707 18.4434 65.5332 18.0645 65.1855 17.7715C64.8379 17.4746 64.2324 17.2129 63.3691 16.9863C62.4355 16.752 61.7285 16.4473 61.248 16.0723C60.7676 15.6973 60.5273 15.1914 60.5273 14.5547C60.5273 13.9023 60.8008 13.3711 61.3477 12.9609C61.8945 12.5508 62.5996 12.3457 63.4629 12.3457C64.084 12.3457 64.6367 12.4531 65.1211 12.668C65.6094 12.8828 65.9941 13.1738 66.2754 13.541V15Z" fill="white"/>
</svg>
