<svg width="16" height="10" viewBox="0 0 16 10" fill="none" xmlns="http://www.w3.org/2000/svg">
<path d="M15.9152 8.68005C15.8958 8.63829 15.8778 8.60366 15.861 8.57591C15.5834 8.07595 15.0529 7.46227 14.2699 6.73472L14.2533 6.71806L14.245 6.70989L14.2367 6.70151H14.2283C13.8729 6.36272 13.6478 6.13493 13.5536 6.01831C13.3811 5.79614 13.3425 5.57127 13.4367 5.34342C13.5033 5.17127 13.7534 4.80771 14.1865 4.25224C14.4143 3.95787 14.5947 3.72193 14.7279 3.54418C15.6888 2.26676 16.1054 1.45048 15.9776 1.095L15.9279 1.01193C15.8946 0.961919 15.8085 0.916168 15.6698 0.874443C15.5308 0.832806 15.3532 0.82592 15.1365 0.853669L12.7374 0.870242C12.6985 0.85647 12.643 0.857753 12.5707 0.874443C12.4985 0.891133 12.4624 0.899508 12.4624 0.899508L12.4206 0.92037L12.3875 0.945434C12.3597 0.962007 12.3291 0.991156 12.2958 1.03282C12.2626 1.07434 12.2349 1.12307 12.2127 1.1786C11.9515 1.8506 11.6545 2.47539 11.3212 3.05294C11.1157 3.39733 10.927 3.69579 10.7546 3.9485C10.5825 4.20112 10.4381 4.38725 10.3216 4.50656C10.2049 4.62599 10.0995 4.72166 10.0049 4.79394C9.91048 4.86624 9.83838 4.89679 9.78846 4.88561C9.73842 4.87444 9.6913 4.86335 9.64668 4.85226C9.56898 4.80225 9.50648 4.73424 9.45936 4.64816C9.41203 4.56209 9.38017 4.45375 9.36351 4.32323C9.34694 4.19263 9.33713 4.0803 9.33433 3.98585C9.33174 3.89152 9.33293 3.75808 9.33856 3.58593C9.34434 3.4137 9.34694 3.29716 9.34694 3.23606C9.34694 3.02499 9.35105 2.79591 9.35931 2.54877C9.36771 2.30163 9.37451 2.10582 9.3802 1.96156C9.38586 1.81716 9.38849 1.66438 9.38849 1.50332C9.38849 1.34226 9.37868 1.21594 9.35931 1.12427C9.34017 1.03271 9.31079 0.943829 9.27207 0.857666C9.23311 0.771591 9.1761 0.705006 9.10129 0.657738C9.02633 0.610528 8.93313 0.573063 8.82223 0.545227C8.52785 0.478613 8.153 0.442579 7.6975 0.436976C6.66457 0.425889 6.00085 0.49259 5.7065 0.636992C5.58988 0.698003 5.48434 0.781365 5.38998 0.886815C5.28999 1.00904 5.27604 1.07574 5.34823 1.08671C5.6815 1.13664 5.91743 1.25606 6.05629 1.44487L6.10633 1.54493C6.14526 1.61711 6.18412 1.74491 6.22301 1.92815C6.26185 2.11139 6.28691 2.31409 6.29794 2.53614C6.32566 2.94162 6.32566 3.28873 6.29794 3.57747C6.27014 3.86634 6.24388 4.09121 6.21881 4.25227C6.19375 4.41334 6.15628 4.54385 6.10633 4.64379C6.05629 4.74375 6.023 4.80485 6.00631 4.82702C5.98965 4.8492 5.97576 4.86318 5.96473 4.86866C5.89254 4.89632 5.81747 4.91041 5.73977 4.91041C5.66195 4.91041 5.56759 4.87149 5.45654 4.7937C5.34551 4.71591 5.23029 4.60906 5.11086 4.47298C4.99144 4.33686 4.85675 4.14665 4.70675 3.90231C4.55686 3.65797 4.40134 3.3692 4.24028 3.03599L4.10702 2.79433C4.02372 2.63887 3.90992 2.41251 3.76552 2.11545C3.62103 1.81827 3.49332 1.5308 3.38229 1.25312C3.33791 1.13649 3.27124 1.0477 3.1824 0.986604L3.1407 0.96154C3.11298 0.939365 3.06848 0.915818 3.00744 0.890725C2.94632 0.865661 2.88253 0.847687 2.81583 0.836628L0.533259 0.853202C0.300009 0.853202 0.141747 0.906043 0.0584145 1.01158L0.025064 1.0615C0.00840329 1.08931 0 1.13372 0 1.19485C0 1.25595 0.0166607 1.33093 0.0500112 1.41972C0.383225 2.20286 0.745588 2.95814 1.1371 3.68566C1.52861 4.41319 1.86883 4.99923 2.15754 5.44326C2.44632 5.88762 2.74067 6.30699 3.04059 6.70119C3.34051 7.09553 3.53904 7.34824 3.63617 7.45927C3.73342 7.57049 3.80981 7.65365 3.86534 7.70918L4.07364 7.90908C4.20693 8.04239 4.40265 8.20205 4.66091 8.38806C4.91922 8.57419 5.2052 8.75743 5.51898 8.93807C5.83282 9.11842 6.19792 9.26559 6.6145 9.37942C7.03101 9.49336 7.43641 9.53908 7.83076 9.51702H8.78879C8.98309 9.50024 9.13029 9.43915 9.23034 9.3337L9.26349 9.29194C9.28578 9.2588 9.30664 9.2073 9.3259 9.138C9.34539 9.06858 9.35508 8.99211 9.35508 8.90892C9.34939 8.67016 9.36757 8.45497 9.40912 8.26339C9.45064 8.07186 9.49796 7.92746 9.55089 7.83021C9.60379 7.73304 9.66349 7.65105 9.72993 7.58459C9.79651 7.51797 9.84396 7.47762 9.87179 7.46373C9.89945 7.44975 9.92154 7.44027 9.9382 7.43458C10.0715 7.39017 10.2283 7.43318 10.409 7.56381C10.5895 7.69432 10.7589 7.85548 10.9172 8.047C11.0755 8.2387 11.2657 8.45377 11.4878 8.69254C11.7101 8.93139 11.9044 9.10894 12.0709 9.22574L12.2375 9.3257C12.3487 9.3924 12.4931 9.4535 12.6709 9.50903C12.8483 9.56452 13.0038 9.57841 13.1373 9.55066L15.2698 9.5174C15.4807 9.5174 15.6449 9.48248 15.7613 9.41318C15.8779 9.34376 15.9472 9.26729 15.9696 9.1841C15.9919 9.10083 15.9931 9.00635 15.9738 8.90072C15.9541 8.79536 15.9346 8.72169 15.9152 8.68005Z" fill="white"/>
</svg>
